<svg width="85" height="25" viewBox="0 0 85 25" fill="none" xmlns="http://www.w3.org/2000/svg">
<path d="M0.224 7.488H4.16L5.344 20.864H5.664L7.616 7.488H11.776L13.696 20.864H14.016L15.232 7.488H18.976L17.024 24H11.392L9.76 12.608H9.44L7.808 24H2.176L0.224 7.488ZM32.4355 24.384C29.6622 24.384 27.5608 23.616 26.1315 22.08C24.7022 20.544 23.9875 18.4533 23.9875 15.808C23.9875 14.464 24.1688 13.2587 24.5315 12.192C24.9155 11.104 25.4488 10.1867 26.1315 9.44C26.8355 8.672 27.6782 8.096 28.6595 7.712C29.6622 7.30667 30.7822 7.104 32.0195 7.104C33.2568 7.104 34.3662 7.30667 35.3475 7.712C36.3288 8.096 37.1608 8.65067 37.8435 9.376C38.5262 10.1013 39.0488 10.9867 39.4115 12.032C39.7955 13.056 39.9875 14.208 39.9875 15.488V16.896H28.6915V17.184C28.6915 18.2507 29.0222 19.1147 29.6835 19.776C30.3448 20.416 31.3155 20.736 32.5955 20.736C33.5768 20.736 34.4195 20.5547 35.1235 20.192C35.8275 19.808 36.4355 19.3067 36.9475 18.688L39.5075 21.472C38.8675 22.2613 37.9715 22.944 36.8195 23.52C35.6675 24.096 34.2062 24.384 32.4355 24.384ZM32.0515 10.496C31.0275 10.496 30.2062 10.816 29.5875 11.456C28.9902 12.0747 28.6915 12.9173 28.6915 13.984V14.24H35.3475V13.984C35.3475 12.896 35.0488 12.0427 34.4515 11.424C33.8755 10.8053 33.0755 10.496 32.0515 10.496ZM46.663 0.32H51.399V10.496H51.623C52.0283 9.51467 52.615 8.704 53.383 8.064C54.151 7.424 55.1963 7.104 56.519 7.104C57.4363 7.104 58.2683 7.27467 59.015 7.616C59.783 7.95733 60.4337 8.48 60.967 9.184C61.5217 9.888 61.9483 10.784 62.247 11.872C62.567 12.96 62.727 14.2507 62.727 15.744C62.727 17.2373 62.567 18.528 62.247 19.616C61.9483 20.704 61.5217 21.6 60.967 22.304C60.4337 23.008 59.783 23.5307 59.015 23.872C58.2683 24.2133 57.4363 24.384 56.519 24.384C55.1963 24.384 54.151 24.0747 53.383 23.456C52.615 22.816 52.0283 21.9947 51.623 20.992H51.399V24H46.663V0.32ZM54.471 20.704C55.5377 20.704 56.359 20.384 56.935 19.744C57.511 19.0827 57.799 18.176 57.799 17.024V14.464C57.799 13.312 57.511 12.416 56.935 11.776C56.359 11.1147 55.5377 10.784 54.471 10.784C53.639 10.784 52.9137 10.9867 52.295 11.392C51.6977 11.7973 51.399 12.4373 51.399 13.312V18.176C51.399 19.0507 51.6977 19.6907 52.295 20.096C52.9137 20.5013 53.639 20.704 54.471 20.704ZM75.8985 10.496C77.1358 10.496 78.0318 10.2613 78.5865 9.792C79.1625 9.32267 79.4505 8.74667 79.4505 8.064V7.84C79.4505 7.02933 79.1732 6.38933 78.6185 5.92C78.0852 5.42933 77.3172 5.184 76.3145 5.184C75.3972 5.184 74.5332 5.41867 73.7225 5.888C72.9332 6.336 72.2612 6.98667 71.7065 7.84L68.6665 5.024C69.0932 4.46933 69.5625 3.968 70.0745 3.52C70.5865 3.05066 71.1518 2.656 71.7705 2.336C72.3892 1.99467 73.0825 1.73867 73.8505 1.568C74.6398 1.376 75.5252 1.28 76.5065 1.28C77.7225 1.28 78.8212 1.41867 79.8025 1.696C80.7838 1.97333 81.6158 2.37867 82.2985 2.912C83.0025 3.424 83.5465 4.04267 83.9305 4.768C84.3145 5.49333 84.5065 6.304 84.5065 7.2C84.5065 7.904 84.3892 8.544 84.1545 9.12C83.9198 9.696 83.5998 10.1973 83.1945 10.624C82.8105 11.0507 82.3518 11.4027 81.8185 11.68C81.3065 11.936 80.7518 12.1173 80.1545 12.224V12.416C81.5198 12.6507 82.6505 13.2267 83.5465 14.144C84.4638 15.04 84.9225 16.256 84.9225 17.792C84.9225 18.7947 84.7092 19.7013 84.2825 20.512C83.8772 21.3227 83.2905 22.016 82.5225 22.592C81.7758 23.168 80.8585 23.616 79.7705 23.936C78.7038 24.2347 77.5092 24.384 76.1865 24.384C75.0558 24.384 74.0532 24.2667 73.1785 24.032C72.3252 23.7973 71.5678 23.488 70.9065 23.104C70.2452 22.6987 69.6692 22.24 69.1785 21.728C68.7092 21.1947 68.2932 20.6507 67.9305 20.096L71.4825 17.344C71.9732 18.2613 72.5812 19.0187 73.3065 19.616C74.0532 20.192 75.0452 20.48 76.2825 20.48C77.4345 20.48 78.3198 20.2133 78.9385 19.68C79.5572 19.1467 79.8665 18.4107 79.8665 17.472V17.248C79.8665 16.3307 79.5145 15.648 78.8105 15.2C78.1065 14.7307 77.1252 14.496 75.8665 14.496H73.7865V10.496H75.8985Z" fill="white"/>
</svg>
