<svg width="202" height="29" viewBox="0 0 202 29" fill="none" xmlns="http://www.w3.org/2000/svg">
<path d="M35.5508 5.50391H48.8984V7.49609H43.4258V23H41.0469V7.49609H35.5508V5.50391ZM61.9156 18.7812C61.5562 19.6953 61.0992 20.8984 60.5445 22.3906C59.7711 24.4531 59.2516 25.7109 58.9859 26.1641C58.6266 26.7734 58.1773 27.2305 57.6383 27.5352C57.0992 27.8398 56.4703 27.9922 55.7516 27.9922H54.0172V26.1875H55.2945C55.9273 26.1875 56.4234 26.0039 56.7828 25.6367C57.1422 25.2695 57.5992 24.3203 58.1539 22.7891L53.0797 9.875H55.3648L59.2555 20.1406L63.0875 9.875H65.3727L61.9156 18.7812ZM73.1164 21.3477V27.9922H70.9484V9.875H73.1164V11.5508C73.4758 10.9023 73.9523 10.4102 74.5461 10.0742C75.1477 9.73047 75.8391 9.55859 76.6203 9.55859C78.2062 9.55859 79.4484 10.1719 80.3469 11.3984C81.2531 12.625 81.7062 14.3242 81.7062 16.4961C81.7062 18.6289 81.2531 20.3047 80.3469 21.5234C79.4406 22.7344 78.1984 23.3398 76.6203 23.3398C75.8234 23.3398 75.1242 23.1719 74.5227 22.8359C73.9289 22.4922 73.4602 21.9961 73.1164 21.3477ZM79.4445 16.4492C79.4445 14.7773 79.1789 13.5156 78.6477 12.6641C78.1242 11.8125 77.343 11.3867 76.3039 11.3867C75.257 11.3867 74.4641 11.8164 73.925 12.6758C73.3859 13.5273 73.1164 14.7852 73.1164 16.4492C73.1164 18.1055 73.3859 19.3633 73.925 20.2227C74.4641 21.082 75.257 21.5117 76.3039 21.5117C77.343 21.5117 78.1242 21.0859 78.6477 20.2344C79.1789 19.3828 79.4445 18.1211 79.4445 16.4492ZM98.7078 15.3594V16.4141H89.368V16.4844C89.3055 18.2734 89.6453 19.5586 90.3875 20.3398C91.1375 21.1211 92.1922 21.5117 93.5516 21.5117C94.2391 21.5117 94.9578 21.4023 95.7078 21.1836C96.4578 20.9648 97.2586 20.6328 98.1102 20.1875V22.332C97.2898 22.668 96.4969 22.918 95.7313 23.082C94.9734 23.2539 94.2391 23.3398 93.5281 23.3398C91.4891 23.3398 89.8953 22.7305 88.7469 21.5117C87.5984 20.2852 87.0242 18.5977 87.0242 16.4492C87.0242 14.3555 87.5867 12.6836 88.7117 11.4336C89.8367 10.1836 91.3367 9.55859 93.2117 9.55859C94.8836 9.55859 96.2 10.125 97.1609 11.2578C98.1297 12.3906 98.6453 13.7578 98.7078 15.3594ZM96.5516 14.7266C96.4578 13.8203 96.1258 13.0391 95.5555 12.3828C94.993 11.7188 94.1805 11.3867 93.118 11.3867C92.0789 11.3867 91.2234 11.7305 90.5516 12.418C89.8797 13.1055 89.5125 13.8789 89.45 14.7383L96.5516 14.7266ZM114.303 6.10156V8.50391C113.584 8.04297 112.862 7.69531 112.135 7.46094C111.416 7.22656 110.69 7.10938 109.955 7.10938C108.838 7.10938 107.955 7.37109 107.307 7.89453C106.659 8.41016 106.334 9.10938 106.334 9.99219C106.334 10.7656 106.545 11.3555 106.967 11.7617C107.397 12.168 108.194 12.5078 109.358 12.7812L110.6 13.0625C112.241 13.4453 113.436 14.0469 114.186 14.8672C114.936 15.6875 115.311 16.8047 115.311 18.2188C115.311 19.8828 114.795 21.1523 113.764 22.0273C112.733 22.9023 111.233 23.3398 109.264 23.3398C108.444 23.3398 107.62 23.25 106.791 23.0703C105.963 22.8984 105.131 22.6367 104.295 22.2852V19.7656C105.194 20.3359 106.041 20.7539 106.838 21.0195C107.643 21.2852 108.452 21.418 109.264 21.418C110.459 21.418 111.389 21.1523 112.053 20.6211C112.717 20.082 113.049 19.332 113.049 18.3711C113.049 17.4961 112.819 16.8281 112.358 16.3672C111.905 15.9062 111.112 15.5508 109.979 15.3008L108.713 15.0078C107.088 14.6406 105.909 14.0859 105.174 13.3438C104.44 12.6016 104.073 11.6055 104.073 10.3555C104.073 8.79297 104.596 7.54297 105.643 6.60547C106.698 5.66016 108.096 5.1875 109.838 5.1875C110.51 5.1875 111.217 5.26563 111.959 5.42188C112.702 5.57031 113.483 5.79688 114.303 6.10156ZM131.738 22.332C131.16 22.668 130.562 22.918 129.945 23.082C129.336 23.2539 128.711 23.3398 128.07 23.3398C126.039 23.3398 124.449 22.7305 123.301 21.5117C122.16 20.293 121.59 18.6055 121.59 16.4492C121.59 14.293 122.16 12.6055 123.301 11.3867C124.449 10.168 126.039 9.55859 128.07 9.55859C128.703 9.55859 129.32 9.64062 129.922 9.80469C130.523 9.96875 131.129 10.2227 131.738 10.5664V12.8281C131.168 12.3203 130.594 11.9531 130.016 11.7266C129.445 11.5 128.797 11.3867 128.07 11.3867C126.719 11.3867 125.68 11.8242 124.953 12.6992C124.227 13.5742 123.863 14.8242 123.863 16.4492C123.863 18.0664 124.227 19.3164 124.953 20.1992C125.688 21.0742 126.727 21.5117 128.07 21.5117C128.82 21.5117 129.492 21.3984 130.086 21.1719C130.68 20.9375 131.23 20.5781 131.738 20.0938V22.332ZM149.701 12.582C149.24 12.2227 148.771 11.9609 148.295 11.7969C147.818 11.6328 147.295 11.5508 146.724 11.5508C145.38 11.5508 144.353 11.9727 143.642 12.8164C142.931 13.6602 142.576 14.8789 142.576 16.4727V23H140.408V9.875H142.576V12.4414C142.935 11.5117 143.486 10.8008 144.228 10.3086C144.978 9.80859 145.865 9.55859 146.888 9.55859C147.42 9.55859 147.916 9.625 148.377 9.75781C148.838 9.89062 149.279 10.0977 149.701 10.3789V12.582ZM156.73 9.92188H162.249V21.3242H166.527V23H155.816V21.3242H160.093V11.5977H156.73V9.92188ZM160.093 4.82422H162.249V7.54297H160.093V4.82422ZM174.282 21.3477V27.9922H172.114V9.875H174.282V11.5508C174.641 10.9023 175.118 10.4102 175.712 10.0742C176.313 9.73047 177.005 9.55859 177.786 9.55859C179.372 9.55859 180.614 10.1719 181.512 11.3984C182.419 12.625 182.872 14.3242 182.872 16.4961C182.872 18.6289 182.419 20.3047 181.512 21.5234C180.606 22.7344 179.364 23.3398 177.786 23.3398C176.989 23.3398 176.29 23.1719 175.688 22.8359C175.095 22.4922 174.626 21.9961 174.282 21.3477ZM180.61 16.4492C180.61 14.7773 180.345 13.5156 179.813 12.6641C179.29 11.8125 178.509 11.3867 177.47 11.3867C176.423 11.3867 175.63 11.8164 175.091 12.6758C174.552 13.5273 174.282 14.7852 174.282 16.4492C174.282 18.1055 174.552 19.3633 175.091 20.2227C175.63 21.082 176.423 21.5117 177.47 21.5117C178.509 21.5117 179.29 21.0859 179.813 20.2344C180.345 19.3828 180.61 18.1211 180.61 16.4492ZM193.944 6.14844V9.875H198.842V11.5508H193.944V18.6758C193.944 19.6445 194.127 20.3203 194.495 20.7031C194.862 21.0859 195.502 21.2773 196.416 21.2773H198.842V23H196.205C194.588 23 193.448 22.6758 192.784 22.0273C192.12 21.3789 191.788 20.2617 191.788 18.6758V11.5508H188.284V9.875H191.788V6.14844H193.944Z" fill="white"/>
<g clip-path="url(#clip0_911_2019)">
<path fill-rule="evenodd" clip-rule="evenodd" d="M0.98608 0H25.3094C25.854 0 26.2955 0.436522 26.2955 0.975V25.025C26.2955 25.5635 25.854 26 25.3094 26H0.98608C0.441483 26 0 25.5635 0 25.025V0.975C0 0.436522 0.441483 0 0.98608 0V0ZM14.6175 13.8324V11.7H5.25909V13.8324H8.6002V23.327H11.26V13.8324H14.6175ZM15.6779 23.0763C16.1068 23.2925 16.6141 23.4547 17.1997 23.5628C17.7854 23.6709 18.4026 23.725 19.0515 23.725C19.6839 23.725 20.2846 23.6655 20.8538 23.5466C21.4229 23.4277 21.9219 23.2317 22.3508 22.9587C22.7797 22.6857 23.1193 22.329 23.3695 21.8884C23.6197 21.4478 23.7448 20.9032 23.7448 20.2545C23.7448 19.7842 23.6733 19.3721 23.5303 19.018C23.3874 18.6639 23.1812 18.349 22.9117 18.0733C22.6423 17.7976 22.3192 17.5503 21.9425 17.3314C21.5658 17.1125 21.1411 16.9057 20.6682 16.7111C20.3217 16.5705 20.011 16.434 19.7361 16.3016C19.4611 16.1692 19.2274 16.034 19.035 15.8962C18.8425 15.7583 18.6941 15.6124 18.5896 15.4583C18.4851 15.3043 18.4329 15.1299 18.4329 14.9353C18.4329 14.7569 18.4796 14.5961 18.5731 14.4529C18.6666 14.3096 18.7985 14.1866 18.969 14.0839C19.1395 13.9812 19.3484 13.9015 19.5959 13.8447C19.8433 13.788 20.1183 13.7596 20.4207 13.7596C20.6407 13.7596 20.873 13.7758 21.1177 13.8082C21.3624 13.8407 21.6085 13.8907 21.8559 13.9582C22.1034 14.0258 22.344 14.1109 22.5777 14.2137C22.8114 14.3164 23.0272 14.4353 23.2252 14.5704V12.146C22.8237 11.9946 22.3852 11.8824 21.9095 11.8095C21.4339 11.7365 20.8881 11.7 20.2722 11.7C19.6454 11.7 19.0515 11.7662 18.4906 11.8987C17.9297 12.0311 17.4362 12.2379 17.01 12.519C16.5838 12.8001 16.247 13.1582 15.9996 13.5933C15.7521 14.0285 15.6284 14.5488 15.6284 15.1542C15.6284 15.9273 15.8552 16.5868 16.3089 17.1327C16.7626 17.6787 17.4513 18.1409 18.3751 18.5193C18.7381 18.6653 19.0762 18.8085 19.3897 18.9491C19.7031 19.0896 19.9739 19.2356 20.2021 19.3869C20.4303 19.5383 20.6104 19.7031 20.7424 19.8815C20.8744 20.0599 20.9404 20.2626 20.9404 20.4897C20.9404 20.6573 20.8991 20.8127 20.8166 20.9559C20.7341 21.0992 20.609 21.2235 20.4413 21.3289C20.2736 21.4343 20.0647 21.5168 19.8145 21.5762C19.5643 21.6357 19.2714 21.6654 18.936 21.6654C18.3641 21.6654 17.7977 21.5668 17.2368 21.3695C16.676 21.1722 16.1563 20.8762 15.6779 20.4816V23.0763Z" fill="white"/>
</g>
<defs>
<clipPath id="clip0_911_2019">
<rect width="27" height="26" fill="white"/>
</clipPath>
</defs>
</svg>
