<svg width="63" height="62" viewBox="0 0 63 62" fill="none" xmlns="http://www.w3.org/2000/svg">
<g clip-path="url(#clip0_5_20)">
<path d="M53 2.5H10C5.85786 2.5 2.5 5.85786 2.5 10V52C2.5 56.1421 5.85786 59.5 10 59.5H53C57.1421 59.5 60.5 56.1421 60.5 52V10C60.5 5.85786 57.1421 2.5 53 2.5Z" fill="#111111" stroke="#111111" stroke-width="5"/>
<path d="M13.0098 41.8408L14.4893 39.9609L15.4121 40.3223L13.6299 42.5977L15.5098 44.9023L14.6113 45.2686L13.0391 43.3594L11.5693 45.249L10.5391 44.9707L12.4092 42.5879L10.4805 40.2295L11.501 39.9902L13.0098 41.8408Z" fill="#F8FAFC"/>
<path d="M52.0098 16.8408L53.4893 14.9609L54.4121 15.3223L52.6299 17.5977L54.5098 19.9023L53.6113 20.2686L52.0391 18.3594L50.5693 20.249L49.5391 19.9707L51.4092 17.5879L49.4805 15.2295L50.501 14.9902L52.0098 16.8408Z" fill="#F8FAFC"/>
<path d="M49.668 45.0859C49.4727 46.4531 49.082 47.6738 48.4961 48.748C47.9297 49.8027 47.2168 50.7207 46.3574 51.502C45.498 52.2832 44.5312 52.9375 43.457 53.4648C42.4023 54.0117 41.2891 54.4512 40.1172 54.7832C38.9648 55.1152 37.793 55.3496 36.6016 55.4863C35.4102 55.6426 34.2676 55.7207 33.1738 55.7207C31.6699 55.7207 30.1855 55.5547 28.7207 55.2227C27.2559 54.9102 25.8105 54.4609 24.3848 53.875C22.9785 53.3086 21.582 52.625 20.1953 51.8242C18.8281 51.0234 17.4707 50.1445 16.123 49.1875L20.4004 44.1484C21.9238 45.4961 23.4277 46.5605 24.9121 47.3418C26.416 48.1035 27.7637 48.6797 28.9551 49.0703C30.3418 49.5391 31.6699 49.8516 32.9395 50.0078C34.3457 50.0859 35.6543 49.9785 36.8652 49.6855C38.0762 49.3926 39.1309 48.9727 40.0293 48.4258C40.9473 47.8594 41.6797 47.1953 42.2266 46.4336C42.7734 45.6523 43.0957 44.832 43.1934 43.9727C43.252 43.25 43.125 42.5957 42.8125 42.0098C42.5 41.4043 42.041 40.8574 41.4355 40.3691C40.8301 39.8613 40.1172 39.4219 39.2969 39.0508C38.4766 38.6602 37.5977 38.3184 36.6602 38.0254C35.7422 37.7129 34.7852 37.4492 33.7891 37.2344C32.8125 37 31.8652 36.8047 30.9473 36.6484C29.834 36.4531 28.6621 36.1992 27.4316 35.8867C26.2012 35.5547 24.9902 35.125 23.7988 34.5977C22.6074 34.0703 21.4844 33.416 20.4297 32.6348C19.375 31.8535 18.457 30.916 17.6758 29.8223C16.9141 28.709 16.3281 27.4199 15.918 25.9551C15.5273 24.4902 15.4004 22.8105 15.5371 20.916C15.6543 19.3535 15.9766 17.9473 16.5039 16.6973C17.0508 15.4277 17.7441 14.2949 18.584 13.2988C19.4434 12.3027 20.4199 11.4531 21.5137 10.75C22.627 10.0273 23.8086 9.43164 25.0586 8.96289C26.3086 8.49414 27.5977 8.16211 28.9258 7.9668C30.2734 7.75195 31.6113 7.6543 32.9395 7.67383C34.7754 7.77148 36.6211 8.05469 38.4766 8.52344C39.2578 8.71875 40.0781 8.97266 40.9375 9.28516C41.8164 9.57812 42.6953 9.93945 43.5742 10.3691C44.4531 10.7793 45.3223 11.2773 46.1816 11.8633C47.041 12.4297 47.8613 13.084 48.6426 13.8262L45.3613 19.0117C44.7363 18.3086 44.0723 17.6934 43.3691 17.166C42.666 16.6387 41.9531 16.1797 41.2305 15.7891C40.5273 15.3984 39.8242 15.0664 39.1211 14.793C38.418 14.5195 37.7539 14.2949 37.1289 14.1191C35.625 13.709 34.1504 13.4746 32.7051 13.416C30.9277 13.416 29.3457 13.6895 27.959 14.2363C26.5723 14.7637 25.4004 15.457 24.4434 16.3164C23.5059 17.1563 22.7832 18.1035 22.2754 19.1582C21.7871 20.1934 21.543 21.2187 21.543 22.2344C21.543 23.2305 21.8359 24.1973 22.4219 25.1348C23.0273 26.0723 23.8574 26.9219 24.9121 27.6836C25.9668 28.4453 27.207 29.0996 28.6328 29.6465C30.0586 30.1738 31.5918 30.5449 33.2324 30.7598C34.6582 30.916 36.0742 31.1699 37.4805 31.5215C38.9062 31.873 40.2637 32.3223 41.5527 32.8691C42.8418 33.416 44.0234 34.0801 45.0977 34.8613C46.1914 35.623 47.1094 36.5117 47.8516 37.5273C48.5938 38.5234 49.1309 39.6562 49.4629 40.9258C49.8145 42.1758 49.8828 43.5625 49.668 45.0859Z" fill="#FAFAFA"/>
</g>
<defs>
<clipPath id="clip0_5_20">
<rect width="63" height="62" fill="white"/>
</clipPath>
</defs>
</svg>
