<svg width="85" height="56" viewBox="0 0 85 56" fill="none" xmlns="http://www.w3.org/2000/svg">
<path d="M56.7723 16.3304L65.8985 31.7923L59.3648 34.0966L56.7723 16.3304Z" fill="#EAD300"/>
<path d="M10.1977 32.6825L24.4954 31.359L24.0693 36.7751L10.1977 32.6825Z" fill="#EA0000"/>
<circle cx="41.5" cy="38.5" r="1.5" fill="#9F00EA"/>
<circle cx="44.5" cy="23.5" r="3.5" fill="#EAA900"/>
<rect x="27" y="52.1431" width="10" height="5" transform="rotate(-45.5869 27 52.1431)" fill="#EAA900"/>
<rect x="74.8723" y="17" width="3" height="5" transform="rotate(21.9912 74.8723 17)" fill="#EA0000"/>
<rect x="40.4045" y="12.5156" width="12" height="4" transform="rotate(-116.768 40.4045 12.5156)" fill="#EA0000"/>
<path d="M1.00009 25.5575C1.00009 25.5575 7.39436 22.3727 8.84493 24.042C9.64183 24.9591 10.2436 26.0698 9.52993 26.9722C8.97976 27.6679 8.18545 27.7566 7.25477 27.5931C5.2839 27.247 5.31379 24.5101 6.10494 22.8151C7.19726 20.4747 12.9957 21.8561 12.9957 21.8561" stroke="#05EA00" stroke-width="1.2"/>
<path d="M23.0821 45C23.0821 45 22.5953 42.1082 23.9924 41.5318C25.166 41.0476 26.1835 43.189 27.1479 42.4127C28.1247 41.6263 25.6862 40.3805 26.4804 39.4399C27.3162 38.4501 30 39.4399 30 39.4399" stroke="#005EEA" stroke-width="1.2"/>
<path d="M19.8076 8.5C19.8076 10.9853 23.791 13 21.0191 13C18.2471 13 16 10.9853 16 8.5C16 6.01472 18.2471 4 21.0191 4C23.791 4 19.8076 6.01472 19.8076 8.5Z" fill="#9F00EA"/>
<path d="M78.2391 37.7447C79.8876 37.9106 81.49 35.4028 81.3049 37.2415C81.1199 39.0802 79.6334 40.4362 77.9849 40.2703C76.3364 40.1044 75.15 38.4793 75.3351 36.6406C75.5201 34.8019 76.5906 37.5787 78.2391 37.7447Z" fill="#005EEA"/>
<path d="M63 42L64.1226 45.4549H67.7553L64.8164 47.5902L65.9389 51.0451L63 48.9098L60.0611 51.0451L61.1836 47.5902L58.2447 45.4549H61.8774L63 42Z" fill="#05EA00"/>
<path d="M27 25L27.6735 27.0729H29.8532L28.0898 28.3541L28.7634 30.4271L27 29.1459L25.2366 30.4271L25.9102 28.3541L24.1468 27.0729H26.3265L27 25Z" fill="#EAD300"/>
<path d="M54.6732 12.3156L55.1712 8.02036L58.6429 10.2212L59.0386 6.61799L62.2052 8.79939L63.1915 4.90398" stroke="#005EEA"/>
</svg>
